<?xml version="1.0" standalone="no"?>
<!DOCTYPE svg PUBLIC "-//W3C//DTD SVG 20010904//EN"
 "http://www.w3.org/TR/2001/REC-SVG-20010904/DTD/svg10.dtd">
<svg version="1.0" xmlns="http://www.w3.org/2000/svg"
 width="512.000000pt" height="512.000000pt" viewBox="0 0 512.000000 512.000000"
 preserveAspectRatio="xMidYMid meet">
<metadata>
Created by potrace 1.16, written by Peter Selinger 2001-2019
</metadata>
<g transform="translate(0.000000,512.000000) scale(0.100000,-0.100000)"
fill="#e64a19" stroke="none">
<path d="M1577 4584 c-13 -13 -7 -41 13 -59 11 -10 20 -23 20 -30 0 -7 9 -22
20 -35 11 -13 20 -29 20 -35 0 -7 7 -16 15 -19 9 -3 23 -20 31 -38 22 -48 39
-75 57 -96 10 -10 17 -28 17 -41 0 -12 6 -24 14 -27 8 -3 19 -25 25 -48 6 -24
17 -49 26 -56 8 -7 15 -28 15 -48 0 -19 10 -51 22 -71 21 -34 22 -45 22 -266
0 -221 -1 -232 -22 -266 -12 -20 -22 -52 -22 -71 0 -20 -9 -46 -20 -61 -11
-14 -20 -32 -20 -40 0 -8 -9 -26 -20 -40 -11 -14 -20 -31 -20 -39 0 -7 -9 -21
-20 -31 -11 -9 -20 -23 -20 -32 0 -8 -9 -19 -20 -25 -11 -6 -20 -16 -20 -22 0
-11 -24 -37 -141 -153 -39 -38 -83 -83 -97 -99 -15 -16 -40 -44 -57 -61 -16
-18 -57 -63 -90 -100 -33 -37 -68 -75 -77 -83 -10 -9 -18 -22 -18 -30 0 -7 -7
-15 -15 -18 -8 -4 -15 -12 -15 -19 0 -7 -11 -23 -25 -36 -13 -13 -25 -30 -25
-37 0 -7 -6 -15 -14 -18 -8 -3 -17 -16 -20 -28 -3 -12 -15 -33 -26 -46 -11
-13 -20 -31 -20 -40 0 -9 -9 -25 -19 -34 -10 -10 -22 -33 -25 -52 -4 -19 -11
-34 -16 -34 -5 0 -12 -17 -15 -37 -3 -21 -12 -51 -20 -68 -19 -41 -23 -62 -31
-190 -9 -129 -9 -129 4 -264 7 -79 13 -106 26 -113 9 -5 16 -21 16 -37 0 -15
9 -38 20 -51 11 -13 20 -31 20 -40 0 -9 9 -27 20 -40 11 -13 20 -29 20 -37 0
-8 9 -27 20 -43 11 -17 29 -43 40 -60 11 -16 20 -33 20 -38 0 -5 7 -16 16 -23
9 -7 19 -21 23 -30 15 -40 276 -319 299 -319 6 0 15 -6 19 -13 10 -15 86 -67
99 -67 5 0 17 -9 27 -20 9 -11 24 -20 33 -20 9 0 27 -9 41 -20 14 -11 34 -20
44 -20 9 0 25 -7 34 -16 8 -9 33 -18 55 -21 22 -3 40 -9 40 -13 0 -12 49 -30
81 -30 16 0 44 -7 61 -16 17 -9 71 -20 121 -24 49 -5 93 -12 96 -17 11 -15 35
-16 271 -19 149 -2 250 1 275 8 58 16 61 17 155 27 47 5 99 16 115 25 17 9 45
16 62 16 18 0 52 9 75 19 24 11 60 23 81 26 20 3 37 10 37 15 0 5 19 14 43 21
23 6 49 16 57 23 8 7 44 27 80 45 36 17 77 40 91 49 80 52 148 101 179 130
110 102 210 206 210 218 0 4 7 14 15 23 37 39 65 80 65 95 0 9 5 16 11 16 5 0
16 15 24 34 8 19 19 37 24 40 5 3 12 18 16 33 3 15 15 39 26 54 10 15 19 33
19 41 0 7 9 30 20 51 11 20 20 49 20 64 0 14 7 34 16 44 9 10 19 44 24 76 4
32 15 75 24 95 9 21 16 63 16 96 0 53 7 104 25 182 13 55 9 295 -5 320 -8 16
-15 71 -18 150 -3 76 -10 141 -19 165 -9 22 -18 67 -22 100 -4 33 -14 74 -23
90 -8 17 -18 52 -21 78 -4 27 -14 55 -22 63 -8 9 -15 28 -15 43 0 15 -9 36
-20 46 -11 10 -20 30 -20 45 0 15 -8 38 -19 51 -10 13 -21 34 -25 47 -4 12
-11 22 -16 22 -5 0 -12 10 -15 23 -9 27 -55 99 -72 110 -7 4 -13 14 -13 22 0
8 -9 20 -20 27 -11 7 -20 16 -20 21 0 10 -81 90 -145 144 -59 48 -113 63 -138
38 -22 -22 -21 -37 3 -65 11 -13 20 -33 20 -45 0 -12 9 -30 20 -40 11 -10 20
-25 20 -32 0 -8 9 -26 20 -40 11 -14 20 -35 20 -47 0 -11 9 -34 20 -51 11 -16
20 -47 20 -67 0 -21 9 -56 21 -78 19 -37 21 -52 17 -193 -3 -112 -9 -161 -21
-187 -8 -19 -18 -48 -22 -63 -3 -15 -12 -30 -20 -33 -18 -7 -75 50 -75 75 0
10 -9 26 -20 36 -11 10 -20 26 -20 37 0 10 -9 26 -20 35 -11 10 -20 25 -20 35
0 10 -9 27 -20 38 -11 11 -20 26 -20 34 0 7 -9 25 -20 39 -11 14 -20 30 -20
37 0 7 -9 23 -20 37 -11 14 -20 32 -20 39 0 8 -9 23 -20 34 -11 11 -20 28 -20
38 0 11 -9 27 -20 37 -11 10 -20 24 -20 30 0 7 -9 23 -19 37 -11 13 -23 37
-26 51 -4 15 -12 31 -19 35 -6 4 -24 33 -40 65 -16 31 -31 57 -35 57 -4 0 -13
16 -20 36 -7 19 -19 38 -27 41 -8 3 -14 14 -14 24 0 10 -4 19 -9 19 -5 0 -17
18 -27 40 -10 22 -22 40 -26 40 -5 0 -13 11 -18 25 -5 14 -13 25 -18 25 -5 0
-15 12 -23 28 -19 36 -22 40 -109 135 -132 143 -312 307 -337 307 -6 0 -18 9
-28 20 -10 11 -24 20 -32 20 -7 0 -16 6 -19 14 -3 8 -17 17 -32 21 -14 3 -32
15 -40 26 -7 10 -21 19 -31 19 -10 0 -29 8 -42 19 -13 10 -39 22 -56 25 -18 4
-33 12 -33 16 0 5 -17 12 -37 16 -21 4 -54 15 -73 25 -19 11 -50 19 -68 19
-18 0 -49 8 -70 19 -24 12 -68 20 -123 23 -47 3 -97 11 -110 19 -26 13 -240
24 -252 13z"/>
<path d="M1570 4133 c0 -10 -7 -31 -16 -48 -9 -16 -20 -63 -25 -104 -5 -41
-14 -78 -20 -81 -6 -4 -14 -29 -16 -56 -3 -27 -9 -53 -13 -59 -4 -5 -22 -37
-40 -70 -33 -62 -77 -119 -166 -215 -28 -30 -66 -73 -85 -94 -19 -22 -49 -55
-66 -73 -18 -18 -33 -35 -33 -39 0 -4 -7 -14 -15 -23 -31 -33 -65 -79 -65 -88
0 -6 -9 -18 -20 -28 -11 -10 -20 -25 -20 -32 0 -8 -9 -26 -20 -40 -11 -15 -20
-41 -20 -61 0 -20 -7 -44 -16 -53 -11 -13 -19 -49 -25 -111 -5 -51 -14 -115
-21 -143 -15 -63 -14 -267 2 -306 16 -37 25 -37 44 1 9 17 23 43 31 59 9 16
22 34 30 41 8 7 15 18 15 25 0 6 9 20 20 30 11 10 20 23 20 28 0 6 7 17 15 26
27 28 75 94 75 102 0 5 7 9 15 9 8 0 15 5 15 10 0 14 216 230 230 230 5 0 10
3 10 8 0 4 35 44 78 89 42 45 84 90 92 99 35 42 99 145 110 178 6 19 15 36 21
38 5 2 12 28 15 58 3 30 8 62 11 70 4 8 7 17 8 20 1 3 6 14 11 25 14 32 11
239 -4 257 -7 9 -17 50 -21 93 -5 45 -15 83 -25 94 -9 10 -16 27 -16 39 0 12
-9 30 -20 39 -11 10 -20 23 -20 30 0 16 -28 43 -46 43 -8 0 -14 -8 -14 -17z"/>
</g>
</svg>
