<?xml version="1.0" standalone="no"?>
<!DOCTYPE svg PUBLIC "-//W3C//DTD SVG 20010904//EN"
 "http://www.w3.org/TR/2001/REC-SVG-20010904/DTD/svg10.dtd">
<svg version="1.0" xmlns="http://www.w3.org/2000/svg"
 width="2134.000000pt" height="2134.000000pt" viewBox="0 0 2134.000000 2134.000000"
 preserveAspectRatio="xMidYMid meet">

<g transform="translate(0.000000,2134.000000) scale(0.100000,-0.100000)"
fill="#000000" stroke="none">
<path d="M6603 19114 c-52 -12 -69 -94 -34 -169 10 -22 43 -68 74 -102 36 -40
60 -78 67 -105 13 -46 26 -69 86 -149 39 -51 63 -96 93 -171 5 -15 27 -38 49
-51 60 -39 102 -94 152 -202 63 -134 138 -259 205 -342 56 -68 85 -137 85
-197 0 -36 30 -90 59 -106 32 -17 67 -85 110 -218 39 -121 75 -196 106 -222
27 -23 46 -81 56 -175 12 -118 39 -207 100 -324 27 -53 54 -121 60 -151 36
-191 36 -1704 0 -1890 -6 -30 -36 -104 -65 -165 -63 -127 -82 -187 -95 -305
-11 -100 -39 -180 -88 -253 -42 -62 -73 -121 -73 -139 0 -38 -27 -98 -76 -169
-61 -90 -94 -151 -94 -174 0 -28 -29 -74 -90 -141 -44 -49 -64 -80 -76 -119
-15 -54 -23 -63 -129 -148 -19 -16 -35 -37 -35 -46 0 -42 -91 -143 -510 -566
-458 -463 -623 -637 -1035 -1095 -131 -146 -285 -313 -341 -372 -62 -64 -106
-119 -110 -135 -12 -59 -28 -84 -68 -111 -22 -15 -46 -39 -52 -52 -6 -14 -19
-42 -29 -62 -10 -21 -50 -74 -90 -118 -70 -77 -105 -131 -105 -163 0 -15 -12
-28 -82 -87 -20 -17 -42 -48 -49 -68 -20 -62 -64 -143 -118 -217 -50 -68 -67
-104 -90 -192 -7 -24 -34 -71 -62 -105 -66 -82 -83 -116 -116 -234 -22 -82
-33 -105 -64 -135 -31 -31 -40 -48 -54 -115 -30 -139 -55 -226 -101 -342 -75
-189 -89 -281 -125 -822 -26 -392 -22 -615 15 -995 39 -391 58 -481 109 -522
41 -32 58 -69 72 -158 16 -97 43 -160 109 -252 25 -35 48 -80 51 -100 11 -69
36 -121 90 -195 53 -70 67 -100 96 -197 7 -25 71 -133 142 -240 132 -200 169
-265 181 -313 3 -15 33 -55 66 -88 33 -33 70 -80 81 -103 78 -153 546 -686
965 -1098 186 -182 266 -249 296 -249 11 0 47 -27 81 -61 105 -104 370 -279
422 -279 8 0 45 -29 82 -64 78 -73 94 -82 170 -102 34 -9 91 -38 146 -74 82
-55 114 -68 234 -100 23 -5 65 -28 95 -50 65 -49 125 -73 242 -95 108 -20 151
-36 166 -64 25 -48 165 -97 320 -112 99 -9 127 -17 329 -89 78 -29 230 -56
446 -80 271 -31 353 -46 396 -76 52 -36 84 -42 263 -54 264 -17 1520 -25 1746
-11 213 13 220 14 395 60 66 17 194 40 285 51 91 11 222 27 291 35 158 20 319
56 401 90 99 42 183 64 291 75 100 10 122 17 437 129 63 22 149 47 191 55 91
17 147 39 155 61 9 23 85 58 204 95 121 38 160 56 286 133 49 30 151 85 225
122 321 162 478 257 799 485 255 181 365 276 696 603 353 347 502 509 541 584
14 29 67 99 116 156 97 110 204 263 213 306 3 14 9 40 13 56 4 17 17 35 29 41
43 21 65 51 118 156 29 59 67 122 82 140 38 43 54 76 82 166 13 40 43 108 68
150 84 144 110 197 118 236 8 46 43 133 89 226 44 89 63 151 75 244 10 77 21
106 90 234 28 52 59 173 100 387 21 112 38 173 84 302 36 99 53 223 65 463 11
214 30 350 81 588 44 206 53 369 47 787 -6 402 -16 520 -53 646 -34 119 -51
260 -69 585 -24 439 -44 603 -90 744 -34 104 -51 183 -80 370 -28 180 -55 295
-86 367 -42 96 -70 189 -94 320 -31 161 -55 232 -99 298 -37 55 -51 94 -61
170 -11 85 -33 139 -85 200 -51 61 -80 126 -80 181 0 55 -38 158 -81 218 -22
31 -63 104 -89 161 -34 71 -58 110 -77 122 -35 22 -41 32 -74 115 -50 126
-188 338 -281 430 -32 31 -60 69 -63 85 -14 62 -31 88 -93 136 -37 29 -70 65
-78 84 -33 78 -499 528 -678 655 -223 157 -414 192 -508 92 -15 -16 -34 -46
-43 -67 -21 -51 -10 -90 53 -175 65 -88 79 -118 97 -202 19 -88 30 -109 99
-190 31 -35 59 -76 62 -90 12 -57 38 -114 81 -176 59 -86 79 -134 92 -214 7
-46 29 -103 75 -195 69 -139 80 -175 96 -326 11 -104 43 -217 89 -307 55 -109
63 -151 68 -367 6 -210 -10 -713 -27 -887 -15 -150 -35 -237 -84 -367 -24 -64
-56 -155 -70 -203 -28 -92 -65 -148 -98 -148 -36 0 -90 33 -156 94 -79 73
-138 161 -147 219 -10 56 -26 87 -80 147 -51 57 -85 118 -85 152 -1 39 -35
100 -84 153 -49 51 -85 115 -86 150 -1 35 -36 97 -94 170 -31 39 -61 88 -67
110 -17 62 -46 122 -88 178 -47 64 -69 106 -87 166 -7 26 -37 80 -65 121 -58
84 -99 161 -99 186 0 28 -29 79 -77 135 -50 58 -93 140 -93 177 0 31 -32 91
-69 131 -65 69 -80 92 -95 144 -8 29 -38 86 -67 127 -61 89 -103 170 -119 230
-14 52 -59 140 -72 140 -14 0 -108 153 -194 314 -44 83 -98 170 -122 195 -25
28 -54 76 -73 121 -48 117 -80 169 -122 203 -42 33 -67 79 -67 123 0 19 -13
40 -43 68 -27 27 -65 84 -106 164 -47 90 -75 132 -104 155 -27 22 -51 57 -79
114 -28 61 -47 87 -69 98 -35 18 -77 74 -125 166 -44 84 -105 160 -316 393
-557 615 -1332 1335 -1502 1394 -32 11 -74 39 -117 79 -73 67 -115 93 -150 93
-12 0 -36 16 -55 38 -19 20 -44 47 -56 59 -11 12 -41 29 -67 38 -90 31 -153
69 -189 112 -46 55 -84 79 -142 88 -48 8 -126 44 -175 80 -49 37 -147 82 -216
100 -88 23 -119 37 -156 73 -19 18 -54 37 -85 46 -29 8 -96 26 -148 41 -52 14
-131 42 -175 62 -150 66 -204 83 -325 98 -118 14 -234 46 -311 85 -79 41 -245
71 -484 90 -199 15 -348 38 -435 66 -97 33 -144 41 -325 60 -146 14 -688 28
-732 18z"/>
<path d="M6562 17273 c-5 -10 -15 -45 -22 -78 -7 -33 -30 -98 -51 -145 -46
-104 -81 -240 -108 -425 -36 -236 -59 -333 -88 -366 -27 -32 -51 -116 -68
-234 -20 -152 -40 -227 -70 -275 -13 -21 -68 -116 -121 -211 -191 -344 -305
-493 -737 -969 -128 -140 -289 -318 -357 -395 -69 -77 -183 -202 -253 -279
-70 -76 -137 -157 -148 -180 -10 -22 -47 -73 -82 -111 -130 -147 -247 -310
-247 -346 0 -9 -27 -47 -60 -83 -76 -85 -85 -98 -109 -174 -10 -35 -42 -98
-69 -140 -62 -95 -81 -150 -93 -269 -11 -105 -27 -158 -69 -223 -50 -78 -71
-180 -110 -523 -25 -218 -43 -344 -75 -507 -35 -181 -45 -328 -45 -660 0 -422
17 -579 73 -686 57 -106 81 -89 203 144 96 183 132 241 201 318 34 40 58 79
68 110 10 35 34 72 85 128 43 48 74 93 80 115 11 40 25 60 148 207 84 100 208
276 230 326 6 15 22 30 34 32 13 3 35 7 50 11 19 3 32 16 42 38 21 48 172 214
456 498 294 294 449 435 503 457 20 8 37 21 37 28 0 19 106 141 374 429 134
143 271 291 306 330 162 180 421 596 500 803 18 46 45 99 61 117 42 47 56 98
79 274 28 213 36 250 82 360 55 133 56 138 69 285 14 151 7 600 -11 741 -6 50
-22 113 -35 142 -34 76 -62 198 -85 374 -27 211 -61 340 -105 404 -43 63 -65
115 -65 157 -1 49 -34 113 -91 176 -51 56 -73 93 -83 143 -7 35 -78 113 -120
133 -45 21 -93 21 -104 -1z"/>
</g>
</svg>
