<?xml version="1.0" encoding="UTF-8"?>
<svg version="1.1" xmlns="http://www.w3.org/2000/svg" width="2134" height="2134">
<path d="M0 0 C1.11023026 0.00415421 1.11023026 0.00415421 2.2428894 0.00839233 C62.90297039 0.27178298 62.90297039 0.27178298 88.21484375 8.98828125 C102.92860026 13.61200287 119.11072922 14.28423906 134.41619873 15.56936646 C152.21584673 17.06739171 167.90020806 19.44701642 184.42797852 26.3840332 C193.30083835 30.07996724 202.09378761 31.88355895 211.61694336 32.95458984 C221.86320089 34.1071579 230.55111916 36.77510384 239.875 41.1875 C250.84689262 46.37302544 262.19852581 49.58032991 274.00390625 52.16015625 C278.76616225 53.61862982 282.13944485 55.95586274 285.8046875 59.2890625 C289.77832521 62.11451028 294.05285893 63.22344085 298.6875 64.625 C307.35149606 67.38085027 315.30437442 70.37406552 322.6875 75.81640625 C327.34619565 79.23335398 331.57194775 80.94563238 337.1875 82.25 C343.32529519 83.68366212 347.36036826 85.49333475 351.5625 90.25 C357.15179856 96.12592926 362.58465139 99.67141084 370.25 102.3125 C375.74773143 104.21848148 379.33148648 105.97735966 382.1875 111.25 C384.81893774 114.57392136 385.7839264 114.86182216 389.6875 116.0625 C395.49657935 117.90591452 398.93978494 120.88863017 403.2890625 125.06640625 C407.26286219 128.88316574 411.01717146 131.71601213 416.29296875 133.5390625 C420.88811761 135.21797813 424.41812572 137.75488389 428.25 140.75 C428.94206543 141.28044922 429.63413086 141.81089844 430.34716797 142.35742188 C436.37200995 147.01342197 442.20384326 151.87894072 447.95605469 156.86572266 C449.58744797 158.27149772 451.23286621 159.65903421 452.8828125 161.04296875 C460.86771239 167.76516691 468.50647189 174.80463573 476.06640625 182 C478.99391009 184.7848537 481.95494521 187.52912572 484.9377346 190.25463486 C492.20065521 196.90461481 499.22473547 203.76466437 506.1796875 210.734375 C507.33246625 211.88647713 508.48539314 213.03843105 509.63845825 214.19024658 C512.02817252 216.57850365 514.4161127 218.96851586 516.80273438 221.35986328 C519.84174164 224.40459931 522.88526282 227.44477757 525.93011284 230.48366928 C528.30155201 232.8514766 530.670582 235.22168288 533.03891373 237.59259796 C534.15998378 238.71432835 535.28177834 239.83533521 536.4043541 240.95555878 C542.33870947 246.88018926 548.11645866 252.86708484 553.5625 259.25 C554.76881121 260.56895832 555.98234372 261.88145982 557.2109375 263.1796875 C557.81897217 263.82437988 558.42700684 264.46907227 559.0534668 265.13330078 C559.67519775 265.79056152 560.29692871 266.44782227 560.9375 267.125 C566.55835674 273.0986647 572.1379581 279.0965057 577.5625 285.25 C578.25206787 286.01812012 578.25206787 286.01812012 578.95556641 286.80175781 C588.97531204 297.97825457 596.71492434 309.72256422 604.0546875 322.82421875 C606.03405336 326.00863895 607.5710616 327.77359454 610.96875 329.40625 C615.33852103 332.51247278 616.92342446 337.33902387 619.16796875 342.08984375 C621.44823054 346.70637375 622.98480895 348.70683831 627.5625 351.25 C629.5546875 354.1484375 629.5546875 354.1484375 631.4375 357.625 C631.77483154 358.23843262 632.11216309 358.85186523 632.4597168 359.48388672 C633.50826767 361.39858915 634.53761869 363.32253826 635.5625 365.25 C636.21724183 366.47406859 636.87218402 367.69803003 637.52734375 368.921875 C638.69963865 371.11280246 639.8646001 373.30768238 641.01953125 375.5078125 C643.48708163 380.20324737 643.48708163 380.20324737 647.66015625 383.13671875 C649.5625 384.25 649.5625 384.25 650.43359375 386.89453125 C650.71396484 388.46267578 650.71396484 388.46267578 651 390.0625 C652.16335177 395.31634669 653.30435697 397.78406963 657.5625 401.25 C663.67556954 407.18443053 666.43840839 414.20467687 669.59765625 421.98046875 C671.68777082 426.870931 673.74524401 430.72379258 677.421875 434.59765625 C682.06540824 439.49958756 684.95989371 444.99460656 688.00616455 450.98410034 C689.5940269 454.10139495 691.22797659 457.19439155 692.859375 460.2890625 C693.17770294 460.89473557 693.49603088 461.50040863 693.82400513 462.12443542 C696.44465271 467.08674804 699.21514639 471.92838151 702.1875 476.6875 C702.56438965 477.29988525 702.9412793 477.91227051 703.32958984 478.54321289 C705.0492318 481.24346112 706.72300201 483.39663146 709.09375 485.5625 C712.4729066 489.24107554 713.75788602 493.16389327 715.4375 497.8125 C719.18532313 507.66409867 723.69232246 516.15867494 729.75 524.8125 C731.96425652 528.02375161 733.21825139 530.96714636 734.375 534.6875 C736.2355938 540.29273426 739.3345841 543.63836566 743.375 547.8515625 C747.83749651 552.74437117 750.44717323 557.64317571 751.4375 564.1875 C752.57719584 571.12244168 756.86445187 575.95238562 761.21484375 581.26953125 C764.84016738 585.7988796 766.73574098 590.04864193 768.5859375 595.5390625 C770.78991464 601.65730304 774.33605792 606.91824194 777.92163086 612.30810547 C781.66160981 617.95487425 784.4524825 623.10274247 786.54296875 629.59375 C788.73887356 635.3148813 792.50498839 640.28808768 795.984375 645.296875 C798.526779 649.09478715 799.96792394 652.45768386 801.1875 656.875 C803.09024069 663.10430457 806.40599689 667.40135309 810.59033203 672.26611328 C814.73403859 677.13121124 817.29632272 681.94247756 818.5 688.3125 C819.93599766 694.30922621 823.47798397 698.16438025 827.625 702.5625 C831.54320636 706.88703887 833.12903399 710.67540997 834.5625 716.25 C836.71277268 723.34589986 840.30638301 728.49541572 845.14453125 734.07421875 C848.46571523 738.08486371 850.07706584 741.51457325 851.4375 746.5625 C854.76601339 758.48161642 863.91434322 769.17634996 874.6484375 775.3515625 C877.67978939 776.77444196 879.30926414 777.18982369 882.5625 776.25 C887.73507401 769.39034473 890.05225326 761.58662658 892.625 753.5 C893.0491312 752.19238388 893.47425617 750.88508966 893.90039062 749.578125 C894.73493137 747.01614524 895.56083334 744.45160034 896.38183594 741.88525391 C897.46690458 738.54433743 898.61325844 735.23079556 899.76953125 731.9140625 C901.48655441 726.75653319 902.54517029 721.76629076 903.1875 716.375 C903.30520752 715.40111328 903.42291504 714.42722656 903.54418945 713.42382812 C906.48571347 687.16466079 906.77736311 660.76401238 906.86621475 634.37020874 C906.87492675 632.26767837 906.88878373 630.16523735 906.90390015 628.06274414 C906.93103318 624.06253708 906.93004199 620.06279837 906.92578125 616.0625 C906.93489532 614.87724731 906.9440094 613.69199463 906.95339966 612.4708252 C906.89030891 600.75480096 904.86307772 589.82336111 899.625 579.3125 C894.56975088 568.48739746 891.71021885 557.98312529 890.5625 546.0625 C889.45569134 534.65302761 885.91845967 525.59185219 880.42871094 515.61572266 C876.96888515 509.2955782 874.92451838 503.50698206 873.75 496.4375 C872.05483504 487.41529973 867.02867538 479.77118791 861.875 472.3359375 C859.87644279 469.15965908 858.73057255 465.79829585 857.5625 462.25 C855.84168608 457.183159 853.58808676 453.92739523 850.125 449.8125 C844.97763499 443.67075766 841.86987172 438.89880291 840.6875 430.9375 C839.20097037 421.59175286 833.93110408 414.27101682 827.98046875 407.125 C824.86588853 403.00654682 824.9608238 398.19052428 825.5625 393.25 C828.75026387 386.87447225 833.80493369 382.52602084 840.5625 380.25 C858.18683947 377.8210045 874.19253335 388.32397136 887.6027832 398.4831543 C893.26114176 402.88045649 898.53770697 407.62564187 903.7265625 412.5625 C906.08366927 414.79623203 908.47410706 416.94832369 910.9375 419.0625 C914.04102898 421.74400098 916.91997052 424.58683794 919.79296875 427.51171875 C921.59260481 429.27957316 923.45851912 430.92254542 925.375 432.5625 C933.04266162 439.18997497 940.04557736 446.49590756 946.5625 454.25 C947.305 455.11625 948.0475 455.9825 948.8125 456.875 C950.5625 459.25 950.5625 459.25 951.6875 462.0625 C953.67196578 465.43609182 955.42649484 466.88749603 958.5 469.25 C963.95215482 473.44213648 966.97759448 477.02330327 968.8125 483.6875 C969.92854534 487.27183609 971.03919968 488.9607214 974 491.25 C988.08177333 502.45847032 997.88652342 522.72193696 1003.98046875 539.359375 C1005.38311784 542.46037782 1005.38311784 542.46037782 1008.48828125 544.16796875 C1012.44089381 546.84489695 1013.65185903 549.55268569 1015.5625 553.8125 C1016.24464093 555.25068998 1016.92824234 556.68818813 1017.61328125 558.125 C1017.94279785 558.82753906 1018.27231445 559.53007813 1018.61181641 560.25390625 C1021.37591285 566.05751502 1024.33712607 571.76264388 1028.25 576.875 C1032.43713658 582.56521125 1033.55419747 588.79125734 1034.4375 595.6875 C1035.62972174 604.00397361 1038.50801158 610.19120183 1044.1875 616.375 C1049.50396929 622.18736556 1050.52822317 627.52519773 1051.5 635.25 C1052.36640826 641.91140121 1054.04100386 646.53349877 1057.77978516 652.04418945 C1061.02752345 656.89690737 1062.78614566 661.40379967 1064.125 667.0625 C1064.32988037 667.87855713 1064.53476074 668.69461426 1064.74584961 669.53540039 C1066.38641422 676.18614873 1067.75128437 682.8897754 1069.11572266 689.60131836 C1070.65481433 697.01448101 1072.79806436 704.07687755 1075.75 711.05859375 C1082.24420589 726.66498229 1084.5256401 743.55713842 1087.04321289 760.17260742 C1088.74043638 771.02413992 1091.56620943 781.46827529 1094.6640625 791.9921875 C1101.17901128 815.51562851 1101.19822012 840.74969418 1102.38500977 864.98144531 C1102.93931844 875.91923089 1103.70997535 886.79432965 1104.96875 897.67578125 C1105.08077759 898.67626999 1105.19280518 899.67675873 1105.30822754 900.70756531 C1106.02796774 906.55527028 1107.21987869 912.0684777 1108.84884644 917.72883606 C1112.02211355 928.93921463 1113.17652639 940.46325046 1113.75 952.0625 C1113.78919556 952.80168671 1113.82839111 953.54087341 1113.86877441 954.30245972 C1116.05866146 996.58314372 1115.47934436 1037.86169482 1106.78747559 1079.32540894 C1103.29863062 1096.03584555 1102.02813891 1112.55349959 1101.38354492 1129.58154297 C1100.76519342 1144.70634581 1098.77243055 1159.05812257 1093.6875 1173.375 C1089.89563757 1184.61615483 1087.32406831 1195.86395435 1085.09179688 1207.50195312 C1079.5388857 1236.33201226 1079.5388857 1236.33201226 1071.67578125 1247.37109375 C1069.00075681 1251.88578412 1068.29669475 1256.60746478 1067.75 1261.75 C1066.14955681 1273.41735305 1061.5522404 1283.45988479 1056.43945312 1293.91967773 C1054.28822129 1298.41450726 1052.7031949 1302.78464377 1051.4375 1307.625 C1049.39986409 1315.40345362 1045.77770079 1321.62593151 1041.609375 1328.4453125 C1037.35652375 1335.57127318 1034.1324961 1342.45537579 1031.640625 1350.38916016 C1029.63412466 1356.65200906 1026.21563048 1361.37661581 1022.3125 1366.625 C1018.73172763 1371.673428 1016.06156921 1377.01686697 1013.49121094 1382.62841797 C1011.44441858 1386.96637988 1009.28166231 1390.083365 1005.5625 1393.25 C1004.5725 1393.58 1003.5825 1393.91 1002.5625 1394.25 C1001.66621102 1396.77081099 1001.66621102 1396.77081099 1001 1399.875 C997.02797762 1413.58971879 987.21765227 1424.16853479 977.94042969 1434.67919922 C971.49762217 1441.88551938 971.49762217 1441.88551938 966.6875 1450.1875 C963.97778208 1456.14887942 959.00225736 1460.54786196 954.5625 1465.25 C953.388102 1466.59746718 952.2205204 1467.95093207 951.0625 1469.3125 C947.63484933 1473.26561599 943.9348409 1476.91377333 940.1875 1480.5625 C938.13804058 1482.66075608 936.21957946 1484.77664509 934.30859375 1486.99609375 C930.28130785 1491.63994546 925.98099276 1495.9785629 921.625 1500.3125 C920.86509766 1501.07626953 920.10519531 1501.84003906 919.32226562 1502.62695312 C915.17488599 1506.76724927 910.93390233 1510.71393935 906.49389648 1514.53686523 C903.20042097 1517.45815428 900.14362727 1520.60813511 897.0625 1523.75 C892.65678032 1528.19847789 888.26382381 1532.58013654 883.46875 1536.61328125 C882.06020338 1537.82266861 880.69042726 1539.0775479 879.34375 1540.35546875 C864.55334723 1554.34700717 847.32710579 1565.77787569 830.5625 1577.25 C829.6132666 1577.90145996 828.6640332 1578.55291992 827.68603516 1579.22412109 C809.71474186 1591.51623827 791.4162442 1602.4836793 771.88256836 1612.10009766 C759.18938978 1618.3638539 746.5768569 1624.92843727 734.6875 1632.625 C727.7245708 1637.00973899 720.31149291 1639.61522876 712.5625 1642.25 C710.01847023 1643.1185246 707.47744066 1643.99445155 704.9375 1644.875 C703.85210938 1645.23851562 702.76671875 1645.60203125 701.6484375 1645.9765625 C697.68372375 1647.61263425 694.08513532 1649.60731528 691.14428711 1652.7800293 C686.7687809 1656.84623132 679.31069527 1657.59222438 673.62597656 1658.78344727 C664.13723085 1660.79068194 655.31426407 1663.71140131 646.3125 1667.3125 C632.99212393 1672.62105736 620.47593363 1675.92000069 606.23242188 1677.46948242 C598.91141767 1678.3263313 592.39224772 1680.71004888 585.58984375 1683.4453125 C564.50229443 1691.59335707 541.59228787 1693.44056165 519.29736328 1695.93139648 C506.58462542 1697.38881335 494.28409971 1699.62693926 481.85913086 1702.68780518 C478.56003242 1703.49539515 475.24959362 1704.24761133 471.9375 1705 C470.97585938 1705.22171875 470.01421875 1705.4434375 469.0234375 1705.671875 C444.70021001 1709.7348972 419.11910978 1708.42240594 394.51329422 1708.37877274 C392.15086056 1708.37494057 389.78843102 1708.37291447 387.42599487 1708.37130737 C364.98970176 1708.35336896 342.5582894 1708.18053865 320.125 1707.8125 C318.90395569 1707.7929425 317.68291138 1707.77338501 316.42486572 1707.75323486 C303.74111749 1707.54355229 291.06372434 1707.2374293 278.38671875 1706.76953125 C276.79555992 1706.71231651 276.79555992 1706.71231651 275.17225647 1706.65394592 C263.50548118 1706.19475977 253.15960591 1705.7103799 242.89453125 1699.68359375 C238.13120013 1697.63418869 233.36303328 1697.03606075 228.25 1696.3125 C227.1256958 1696.14484131 226.0013916 1695.97718262 224.84301758 1695.80444336 C218.32341456 1694.85509843 211.79565251 1694.0245701 205.25 1693.28125 C185.31317588 1691.01610973 166.31377959 1688.38990056 147.69140625 1680.53515625 C142.33852609 1678.33653256 137.28187628 1677.39496108 131.54296875 1676.87109375 C118.49366155 1675.66133626 104.08066981 1674.03617211 94.48046875 1664.09375 C92.26810623 1661.96699825 90.83783942 1661.45698837 87.875 1660.75 C86.91335938 1660.50894531 85.95171875 1660.26789063 84.9609375 1660.01953125 C82.44826655 1659.45057013 79.93631153 1658.90925869 77.4140625 1658.38671875 C67.82555845 1656.35340883 60.66599468 1653.66634981 52.640625 1647.859375 C48.54694723 1645.05131504 45.07994434 1643.79671102 40.1875 1642.8125 C32.54661033 1641.23678658 27.23466374 1637.77494763 20.88671875 1633.41015625 C15.30425543 1629.67535406 10.52703002 1627.45720073 3.99609375 1625.91015625 C-1.9181831 1624.30580186 -5.59195201 1620.14664925 -9.73046875 1615.91796875 C-13.37846324 1612.3534524 -17.20510899 1610.29179133 -21.9375 1608.5625 C-36.70744507 1602.88516376 -52.24616257 1591.05568774 -62.9375 1579.5625 C-65.34521933 1577.06452407 -65.34521933 1577.06452407 -68.71264648 1575.90917969 C-72.50959984 1574.33855363 -75.47219008 1572.09901084 -78.53515625 1569.390625 C-79.12079849 1568.88025696 -79.70644073 1568.36988892 -80.30982971 1567.84405518 C-89.40457211 1559.77482946 -97.89822718 1551.04692168 -106.46038818 1542.42272949 C-108.35632996 1540.51590795 -110.25790045 1538.61475094 -112.15959072 1536.71366501 C-114.46205829 1534.41085797 -116.76026285 1532.10380959 -119.05859375 1529.796875 C-119.89724472 1528.95711121 -120.73589569 1528.11734741 -121.59996033 1527.25213623 C-125.87578895 1522.9420009 -130.00203868 1518.56045863 -133.96302795 1513.95904541 C-135.71338692 1511.93022231 -137.52848966 1509.97271218 -139.375 1508.03125 C-140.37660156 1506.97357422 -140.37660156 1506.97357422 -141.3984375 1505.89453125 C-142.07132813 1505.18683594 -142.74421875 1504.47914062 -143.4375 1503.75 C-148.56742385 1498.35473526 -153.56825272 1492.8816405 -158.4375 1487.25 C-159.44864174 1486.09454688 -160.46034311 1484.93958322 -161.47265625 1483.78515625 C-184.90453647 1456.95546165 -184.90453647 1456.95546165 -192.4375 1444.25 C-195.43127195 1439.37214757 -198.37267975 1435.17650437 -202.5625 1431.25 C-205.92952321 1428.00345408 -207.58454961 1425.23112882 -209.30078125 1420.9296875 C-213.10670547 1411.95764622 -218.43202716 1403.66306056 -223.8515625 1395.59765625 C-224.24586456 1395.01075012 -224.64016663 1394.42384399 -225.04641724 1393.81915283 C-227.03313171 1390.87060075 -229.03398342 1387.93271586 -231.05322266 1385.00634766 C-236.52145732 1377.01920568 -241.13709242 1369.03951175 -243.8125 1359.6875 C-245.7674679 1353.46714761 -249.95167262 1348.55279874 -253.828125 1343.40234375 C-256.82669203 1339.08478679 -258.2321621 1334.71686118 -259.625 1329.6875 C-261.36229701 1323.46485775 -263.83667415 1318.58411158 -267.5625 1313.3125 C-272.90523424 1305.74613277 -275.11607983 1299.79111317 -276.375 1290.5625 C-277.32300791 1283.87982129 -279.47601522 1280.40284915 -284 1275.4375 C-289.00099149 1269.53573579 -289.98346418 1261.32817491 -290.95703125 1253.88671875 C-291.07915482 1252.9901506 -291.20127838 1252.09358246 -291.32710266 1251.16984558 C-299.02549058 1192.83957344 -298.25754372 1135.96594128 -291.9453125 1077.546875 C-291.83015793 1076.45955582 -291.71500336 1075.37223663 -291.59635925 1074.25196838 C-290.05476715 1060.61826589 -286.59069333 1048.3763761 -280.9140625 1035.90234375 C-277.41137508 1027.23828888 -275.52155576 1017.93103087 -273.4140625 1008.84375 C-273.2485791 1008.16111084 -273.0830957 1007.47847168 -272.91259766 1006.77514648 C-272.46797611 1004.93839795 -272.04565437 1003.0962915 -271.625 1001.25390625 C-270.20261961 997.65584532 -268.47461349 996.55271007 -265.4375 994.25 C-264.1394782 991.92555277 -264.1394782 991.92555277 -263.375 989.3125 C-263.05015625 988.34441406 -262.7253125 987.37632812 -262.390625 986.37890625 C-261.74821062 984.26999673 -261.13412848 982.15227409 -260.546875 980.02734375 C-257.57265253 969.45373082 -252.50888078 961.53361749 -245.4375 953.25 C-243.87853186 950.52879038 -243.1653699 948.20839864 -242.6875 945.125 C-241.02675173 937.30670813 -236.24232193 931.2756318 -231.4375 925.0625 C-227.34231464 919.5840173 -225.12705391 914.02233132 -222.859375 907.6328125 C-220.8918384 902.9518051 -218.83347597 900.06431931 -214.4375 897.5 C-210.84875245 894.80843934 -210.10209963 892.66285541 -208.48046875 888.60546875 C-205.39878856 881.64571912 -199.6205173 876.13132592 -194.48828125 870.64453125 C-191.45653452 867.10460602 -189.45054921 863.72480293 -188.1875 859.25 C-186.49202986 854.4627902 -183.7588857 852.76426077 -179.4375 850.25 C-178.7775 850.25 -178.1175 850.25 -177.4375 850.25 C-177.26734375 849.59773438 -177.0971875 848.94546875 -176.921875 848.2734375 C-176.67953125 847.39945313 -176.4371875 846.52546875 -176.1875 845.625 C-175.95546875 844.76648437 -175.7234375 843.90796875 -175.484375 843.0234375 C-173.03063068 836.5228462 -168.5131143 832.09766844 -163.625 827.375 C-159.33767554 823.16167053 -155.15574236 818.95086915 -151.265625 814.36328125 C-148.76427004 811.47175768 -146.16269531 808.67756236 -143.5625 805.875 C-138.46935067 800.37865945 -133.4367399 794.83202926 -128.4375 789.25 C-126.93793381 787.582943 -125.43792947 785.91628005 -123.9375 784.25 C-123.195 783.425 -122.4525 782.6 -121.6875 781.75 C-105.9375 764.25 -105.9375 764.25 -103.69140625 761.7578125 C-102.1737844 760.06922805 -100.66084288 758.3764267 -99.15234375 756.6796875 C-95.00072209 752.02246526 -90.75380472 747.53292751 -86.3125 743.15234375 C-84.56871269 741.38312621 -82.93204041 739.57021573 -81.3125 737.6875 C-71.11389801 725.85523263 -60.09345702 714.76750557 -49.02232552 703.75966072 C-46.719045 701.46941926 -44.41914516 699.17582676 -42.11997986 696.88145447 C-37.24951007 692.02226588 -32.37505553 687.16708728 -27.5 682.3125 C-21.81793599 676.65416126 -16.13758475 670.99412354 -10.46142387 665.32986259 C-8.2085286 663.08339069 -5.95261883 660.83997748 -3.69654846 658.59669495 C-2.30674614 657.21052718 -0.91708516 655.82421768 0.47241211 654.43774414 C1.39752342 653.52038231 1.39752342 653.52038231 2.34132385 652.58448792 C15.18458509 640.3546203 15.18458509 640.3546203 24.125 625.5 C26.50412348 620.12111214 30.99184295 617.32790189 35.75 614.0625 C38.65724858 611.15525142 39.19196824 609.85672798 40.375 606.0625 C42.22128795 600.29091078 45.23532171 596.90239409 49.3828125 592.578125 C53.74374004 587.92021673 56.30591479 583.23378336 58.25 577.1875 C60.22584697 571.33344099 63.39604952 566.63766694 66.94604492 561.64038086 C70.70939428 556.29799374 73.23848917 551.11604805 74.6875 544.6875 C76.00961863 540.02826912 78.30442281 536.34529291 81 532.375 C87.72493557 522.31855611 89.74295246 512.59020456 91.35791016 500.7512207 C92.82564465 490.54344468 95.99078012 481.8322155 101.1875 472.875 C106.79396386 462.74680116 107.63072964 451.88475045 108.12451172 440.53710938 C108.18683141 439.1204385 108.18683141 439.1204385 108.25041008 437.67514801 C108.76084616 424.81917702 108.70656168 411.95763241 108.6953125 399.09375 C108.69553685 396.33052536 108.69696001 393.56730149 108.69821167 390.80407715 C108.70001464 385.04890452 108.6976769 379.29374486 108.69287109 373.53857422 C108.68743214 366.95044652 108.68919614 360.3623498 108.6946975 353.77422285 C108.6992827 348.04694087 108.69985312 342.31966804 108.69725883 336.59238482 C108.69572539 333.20275081 108.69583116 329.81314252 108.69879532 326.42350769 C108.70733049 313.92560679 108.67333577 301.44266574 108.12060547 288.95507812 C108.08240755 288.08823647 108.04420963 287.22139481 108.0048542 286.32828522 C107.40601811 274.46428381 105.5656017 264.2596146 99.62036133 253.88842773 C93.75441954 243.5468793 91.41892253 232.8712221 90.29052734 221.13354492 C89.50859433 213.56220933 87.33974277 208.37827826 82.625 202.5 C77.35517471 195.7869311 75.23497651 187.35699936 72.63916016 179.34155273 C69.42813816 168.80884422 69.42813816 168.80884422 62.4375 160.625 C58.12400779 157.06168035 57.45097588 153.32078401 56.6875 147.9375 C55.45453741 140.91620157 53.22652195 135.92085469 48.375 130.6875 C39.31934205 120.69174197 33.66624291 107.81255226 27.98754883 95.7265625 C23.69097866 86.81277166 18.95365718 80.5898273 10.5625 75.25 C8.02807877 72.71557877 7.49022094 70.97443608 6.5625 67.4375 C4.83497923 61.80227182 1.3064272 57.7166674 -2.24926758 53.12744141 C-6.29063365 47.77769058 -8.54787513 42.5862522 -10.9765625 36.33203125 C-12.85170973 32.37617252 -15.32221299 30.06023438 -18.53515625 27.16796875 C-23.0864788 22.57926368 -25.69470178 16.83391872 -25.875 10.375 C-25.77511897 7.19055777 -25.43509152 4.7827553 -23.4375 2.25 C-15.98337003 -0.66162555 -7.88699982 -0.05746988 0 0 Z " fill="#005DB2" transform="translate(679.4375,220.75)"/>
<path d="M0 0 C7.50234703 0.84703918 12.61499809 5.46684161 17.3515625 11.125 C19.5731916 14.49731905 20.67782169 18.0699166 21.91796875 21.890625 C23.69395564 26.61692482 26.87241069 29.48265304 30.5 32.9375 C34.71863716 37.3781707 36.10857879 41.85554237 37 47.8125 C38.16956668 53.772912 40.15559771 58.09452889 43.3125 63.25 C49.61978464 73.82671505 51.32200209 84.51357588 53.078125 96.546875 C53.1852179 97.28060333 53.29231079 98.01433167 53.40264893 98.77029419 C53.93948018 102.47503137 54.45987317 106.18090216 54.95019531 109.89208984 C56.44292403 120.93793424 58.28471417 132.12076783 63 142.3125 C65.94352917 149.33079701 66.29012307 156.92812639 66.875 164.4375 C66.96177002 165.50677734 66.96177002 165.50677734 67.05029297 166.59765625 C72.14704099 233.26372534 72.14704099 233.26372534 59.578125 260.21875 C54.85304374 271.06893661 53.87693537 282.58027461 52.31591797 294.22265625 C51.7213617 298.55771549 51.04903469 302.87449445 50.3125 307.1875 C50.10496094 308.44046875 49.89742187 309.6934375 49.68359375 310.984375 C48.2522282 317.09706653 46.3074106 321.07489115 41.875 325.4375 C40.38478007 328.36907164 40.38478007 328.36907164 39.125 331.6875 C25.0055968 366.19550418 3.6664622 398.93210587 -22.32519531 425.57714844 C-24.83421658 428.17057519 -27.26120554 430.82891619 -29.6875 433.5 C-33.88193389 438.09569512 -38.11734535 442.65032438 -42.375 447.1875 C-43.00712402 447.86159912 -43.63924805 448.53569824 -44.29052734 449.23022461 C-47.5176618 452.6689945 -50.75170121 456.10094398 -53.99609375 459.5234375 C-60.04696338 465.9178702 -66.0400481 472.3518455 -71.8125 479 C-72.29356201 479.54736816 -72.77462402 480.09473633 -73.27026367 480.65869141 C-75.61168877 483.39209708 -77.53032627 486.05033344 -79.234375 489.2265625 C-81.35497183 492.828072 -83.04294256 493.53950219 -86.78515625 495.15625 C-91.90040109 497.95725218 -95.91079017 502.46018363 -100.125 506.4375 C-101.36884117 507.50720341 -102.6182844 508.57045169 -103.875 509.625 C-108.70968755 513.810401 -113.13214607 518.42065588 -117.62915039 522.9609375 C-121.3324478 526.68692044 -125.09221111 530.24405657 -129.1015625 533.640625 C-131.8953336 536.12158003 -134.54109799 538.73839494 -137.1875 541.375 C-137.67049561 541.85348389 -138.15349121 542.33196777 -138.65112305 542.82495117 C-141.38095569 545.56584136 -143.97054835 548.3858003 -146.49609375 551.31640625 C-150.79950693 556.28242813 -155.47570025 560.83895312 -160.1640625 565.4375 C-171.80857248 576.69708609 -171.80857248 576.69708609 -180.375 590.25 C-182.54506969 592.96258711 -183.67134667 592.90821034 -187 593.625 C-190.84577774 594.60810944 -190.84577774 594.60810944 -193.5390625 597.3515625 C-194.30300488 599.03883091 -195.03745655 600.7396093 -195.75 602.44921875 C-201.83443303 615.67248939 -213.27120366 627.32373476 -222.58984375 638.35546875 C-226.33252038 642.85086247 -228.91073203 646.86214328 -231.07421875 652.28515625 C-232.64148833 655.49543706 -234.91505376 657.86484378 -237.3203125 660.4765625 C-241.36258248 664.86881256 -244.87366567 668.89062573 -246.375 674.75 C-247.61524309 679.04314917 -249.74191315 681.46735641 -252.8125 684.6875 C-262.74822249 695.15217463 -268.66745068 708.11303647 -275.11425781 720.88085938 C-281.04152129 732.53592709 -281.04152129 732.53592709 -285.125 737.4375 C-288.4375 738.375 -288.4375 738.375 -291.125 738.4375 C-304.71301497 723.39362629 -303.2741787 697.15689882 -303.29296875 678.2265625 C-303.29629715 677.01592133 -303.29962555 675.80528015 -303.30305481 674.55795288 C-303.30807981 672.0117836 -303.31046452 669.46560783 -303.31030273 666.91943359 C-303.31247503 663.10632925 -303.33064019 659.29352162 -303.34960938 655.48046875 C-303.40086663 634.34756469 -302.24978566 613.73964824 -298.3253479 592.95999146 C-294.75935806 573.97593457 -292.33559253 554.91573787 -290.25488281 535.71728516 C-289.24477884 526.55795644 -288.13553906 517.48088141 -286.19921875 508.46484375 C-286.05289505 507.7638002 -285.90657135 507.06275665 -285.7558136 506.34046936 C-284.40264846 500.47197817 -281.94273665 495.33146033 -278.74609375 490.2421875 C-275.09742971 484.29354051 -274.41284297 478.36005453 -273.625 471.5625 C-272.09250606 458.56001097 -268.02377703 449.67561119 -260.96875 438.671875 C-259.17162581 435.51929273 -258.08415367 432.65759952 -257.0625 429.1875 C-254.98027661 422.24675536 -251.11788201 417.66830987 -246.2578125 412.421875 C-242.53684606 408.36554248 -240.20290457 404.7939912 -238.125 399.703125 C-233.08033428 388.27380423 -223.34607669 377.74693832 -214.8125 368.75 C-210.811365 364.46532 -208.23925112 360.20755714 -205.61328125 355 C-203.59910062 351.53201445 -201.0506574 349.05408199 -198.1328125 346.3359375 C-196.13165807 344.44379537 -194.35070746 342.46792443 -192.5625 340.375 C-190.33855559 337.78796262 -188.05889732 335.32803167 -185.625 332.9375 C-182.59245435 329.95212728 -179.78666613 326.82669593 -177.0078125 323.60546875 C-174.9092468 321.18907049 -172.770603 318.81220976 -170.625 316.4375 C-167.97386006 313.50071535 -165.34209829 310.55147458 -162.75 307.5625 C-159.29648439 303.59497276 -155.7349606 299.7290236 -152.17236328 295.85986328 C-149.61974237 293.08291318 -147.09531795 290.28786687 -144.625 287.4375 C-140.3723706 282.53685088 -135.96324859 277.77939775 -131.56884766 273.00634766 C-128.31227837 269.46784339 -125.06324647 265.92243067 -121.81640625 262.375 C-120.05714725 260.45487987 -118.29427197 258.53806514 -116.52734375 256.625 C-111.6504221 251.31842683 -106.97757327 245.90604107 -102.45703125 240.29296875 C-100.42649669 237.80666931 -98.34532248 235.37532558 -96.23950195 232.95288086 C-88.95763057 224.53228062 -82.46551736 215.58121573 -76.125 206.4375 C-75.72071777 205.85452148 -75.31643555 205.27154297 -74.89990234 204.67089844 C-68.75677437 195.70144383 -63.54412335 186.20079077 -58.29956055 176.68945312 C-55.38417597 171.41085519 -52.41431359 166.22458917 -49.14306641 161.15917969 C-41.65234082 149.46712019 -40.13303419 137.0288505 -38.26806641 123.54418945 C-36.16276004 108.99030032 -36.16276004 108.99030032 -31.68359375 103.75170898 C-24.94727881 93.74958973 -24.58034185 76.83371974 -22.77050781 65.07104492 C-20.57958728 50.93660623 -17.74987792 37.46053779 -12.0625 24.25 C-9.34175437 17.72944182 -7.09142805 11.49593803 -5.6953125 4.5546875 C-4.74034799 1.00954527 -3.57861592 0.50100623 0 0 Z " fill="#005DB2" transform="translate(660.125,403.5625)"/>
</svg>
